<?xml version="1.0" standalone="no"?>
<!-- Generator: Adobe Fireworks 10, Export SVG Extension by Aaron Beall (http://fireworks.abeall.com) . Version: 0.6.1  -->
<!DOCTYPE svg PUBLIC "-//W3C//DTD SVG 1.1//EN" "http://www.w3.org/Graphics/SVG/1.1/DTD/svg11.dtd">
<svg id="Untitled-Page%201" viewBox="0 0 198 31" style="background-color:#ffffff00" version="1.1"
	xmlns="http://www.w3.org/2000/svg" xmlns:xlink="http://www.w3.org/1999/xlink" xml:space="preserve"
	x="0px" y="0px" width="198px" height="31px"
>
	<g>
		<path d="M 0.8594 23 L 8.6719 23 C 11.0781 23 12.9688 22.5 14.3281 21.4688 C 15.6719 20.4375 16.3594 19.0156 16.3594 17.2031 C 16.3594 15.8594 16 14.7969 15.2813 14.0156 C 14.5625 13.2344 13.4531 12.7031 11.9375 12.4219 L 11.9375 12.2656 C 13.1563 12.0469 14.0781 11.5156 14.7344 10.6719 C 15.3906 9.8281 15.7188 8.7656 15.7188 7.4844 C 15.7188 5.5938 15.0469 4.2031 13.7188 3.3281 C 12.3906 2.4531 10.25 2 7.2813 2 L 0.8594 2 L 0.8594 23 L 0.8594 23 ZM 4.3594 5 L 7.4531 5 C 9.0625 5 10.2344 5.2344 10.9844 5.6875 C 11.7188 6.1406 12.0938 6.875 12.0938 7.8906 C 12.0938 9.0313 11.75 9.8281 11.0625 10.2969 C 10.375 10.7656 9.2813 11 7.7969 11 L 4.3594 11 L 4.3594 5 L 4.3594 5 ZM 7.9688 14 C 9.5469 14 10.7188 14.25 11.5 14.7188 C 12.2813 15.1875 12.6719 15.9219 12.6719 16.9063 C 12.6719 17.9844 12.2813 18.7656 11.5313 19.2656 C 10.7656 19.7656 9.6406 20 8.1563 20 L 4.3594 20 L 4.3594 14 L 7.9688 14 L 7.9688 14 Z" fill="#ff9900"/>
		<path d="M 32.5156 9.1563 C 31.1719 7.7188 29.3438 7 27.0469 7 C 24.6406 7 22.7656 7.7031 21.4531 9.1094 C 20.125 10.5156 19.4688 12.4688 19.4688 14.9688 C 19.4688 16.5938 19.7656 18 20.3906 19.2188 C 21 20.4375 21.875 21.375 23.0156 22.0313 C 24.1563 22.6875 25.4688 23 26.9688 23 C 29.3438 23 31.1875 22.2969 32.5313 20.875 C 33.8594 19.4688 34.5313 17.5 34.5313 14.9688 C 34.5313 12.5313 33.8594 10.5938 32.5156 9.1563 L 32.5156 9.1563 ZM 23.9531 11.2969 C 24.5781 10.4375 25.5938 10 27 10 C 29.6563 10 30.9844 11.6563 30.9844 14.9688 C 30.9844 18.3281 29.6563 20 27.0156 20 C 24.3438 20 23.0156 18.3281 23.0156 14.9688 C 23.0156 13.375 23.3281 12.1563 23.9531 11.2969 L 23.9531 11.2969 Z" fill="#ff9900"/>
		<path d="M 50.5156 9.1563 C 49.1719 7.7188 47.3438 7 45.0469 7 C 42.6406 7 40.7656 7.7031 39.4531 9.1094 C 38.125 10.5156 37.4688 12.4688 37.4688 14.9688 C 37.4688 16.5938 37.7656 18 38.3906 19.2188 C 39 20.4375 39.875 21.375 41.0156 22.0313 C 42.1563 22.6875 43.4688 23 44.9688 23 C 47.3438 23 49.1875 22.2969 50.5313 20.875 C 51.8594 19.4688 52.5313 17.5 52.5313 14.9688 C 52.5313 12.5313 51.8594 10.5938 50.5156 9.1563 L 50.5156 9.1563 ZM 41.9531 11.2969 C 42.5781 10.4375 43.5938 10 45 10 C 47.6563 10 48.9844 11.6563 48.9844 14.9688 C 48.9844 18.3281 47.6563 20 45.0156 20 C 42.3438 20 41.0156 18.3281 41.0156 14.9688 C 41.0156 13.375 41.3281 12.1563 41.9531 11.2969 L 41.9531 11.2969 Z" fill="#ff9900"/>
		<path d="M 60.9219 19.4688 C 60.4844 19.125 60.2813 18.5625 60.2813 17.8125 L 60.2813 10 L 65.0469 10 L 65.0469 7 L 60.2813 7 L 60.2813 3 L 58.1563 3 L 56.9844 6.8281 L 54.5781 8.2656 L 54.5781 10 L 56.8281 10 L 56.8281 18.1719 C 56.8281 21.3906 58.4844 23 61.8125 23 C 62.4531 23 63.0781 22.9531 63.7031 22.8281 C 64.3125 22.7031 64.8125 22.5625 65.2031 22.375 L 65.2031 19.5938 C 64.3281 19.875 63.4688 20 62.6094 20 C 61.9063 20 61.3438 19.8281 60.9219 19.4688 L 60.9219 19.4688 Z" fill="#ff9900"/>
		<path d="M 79.25 16.4063 C 78.9375 15.875 78.4688 15.3906 77.8438 14.9844 C 77.2188 14.5781 76.2031 14.125 74.8125 13.625 C 73.1563 13.0469 72.0781 12.5938 71.5938 12.25 C 71.0938 11.9063 70.8594 11.5 70.8594 11.0156 C 70.8594 10.3438 71.7969 10 73.6875 10 C 74.9219 10 76.4531 10.3594 78.2813 11.0781 L 79.4375 8.2969 C 77.6875 7.4375 75.8281 7 73.875 7 C 71.9063 7 70.3438 7.375 69.1875 8.0938 C 68.0313 8.8281 67.4688 9.8594 67.4688 11.1719 C 67.4688 12.2813 67.8125 13.1719 68.5 13.8594 C 69.1875 14.5469 70.5 15.2344 72.4375 15.9219 C 73.4219 16.2813 74.1875 16.5938 74.75 16.875 C 75.3125 17.1563 75.7031 17.4219 75.9531 17.6719 C 76.2031 17.9375 76.3281 18.2656 76.3281 18.6563 C 76.3281 19.5625 75.2188 20 73.0313 20 C 71.3125 20 69.4688 19.5625 67.5 18.6875 L 67.5 21.8906 C 68.8438 22.6406 70.625 23 72.8438 23 C 75.0469 23 76.7344 22.6094 77.9219 21.7969 C 79.1094 20.9844 79.7031 19.8281 79.7031 18.3281 C 79.7031 17.5781 79.5469 16.9375 79.25 16.4063 L 79.25 16.4063 Z" fill="#ff9900"/>
		<path d="M 87.9219 19.4688 C 87.4844 19.125 87.2813 18.5625 87.2813 17.8125 L 87.2813 10 L 92.0469 10 L 92.0469 7 L 87.2813 7 L 87.2813 3 L 85.1563 3 L 83.9844 6.8281 L 81.5781 8.2656 L 81.5781 10 L 83.8281 10 L 83.8281 18.1719 C 83.8281 21.3906 85.4844 23 88.8125 23 C 89.4531 23 90.0781 22.9531 90.7031 22.8281 C 91.3125 22.7031 91.8125 22.5625 92.2031 22.375 L 92.2031 19.5938 C 91.3281 19.875 90.4688 20 89.6094 20 C 88.9063 20 88.3438 19.8281 87.9219 19.4688 L 87.9219 19.4688 Z" fill="#ff9900"/>
		<path d="M 100.9063 7.8281 C 100.0313 8.3906 99.3125 9.125 98.7813 10.0625 L 98.6094 10.0625 L 98.1563 7 L 95.4688 7 L 95.4688 23 L 98.9063 23 L 98.9063 14.8594 C 98.9063 13.4844 99.3281 12.3594 100.2031 11.4844 C 101.0625 10.625 102.1875 10.1875 103.5781 10.1875 C 104.1094 10.1875 104.6094 10.25 105.1094 10.3594 L 105.4531 7.1406 C 104.9844 7.0469 104.4063 7 103.7188 7 C 102.7188 7 101.7813 7.2813 100.9063 7.8281 L 100.9063 7.8281 Z" fill="#ff9900"/>
		<path d="M 120.7031 23 L 120.7031 12.4063 C 120.7031 10.5469 120.1875 9.1875 119.1563 8.3125 C 118.125 7.4375 116.6094 7 114.6094 7 C 113.7031 7 112.7344 7.1406 111.7188 7.4063 C 110.6875 7.6875 109.75 8.0781 108.9063 8.5938 L 109.9844 11.2344 C 110.6563 10.9063 111.3594 10.625 112.0938 10.375 C 112.8281 10.125 113.5938 10 114.4063 10 C 115.375 10 116.1094 10.2031 116.5781 10.5938 C 117.0469 10.9844 117.2813 11.5625 117.2813 12.3438 L 117.2813 13 L 114.5781 13.0938 C 112.1094 13.1719 110.2813 13.625 109.0781 14.4531 C 107.875 15.2969 107.2813 16.5313 107.2813 18.1563 C 107.2813 19.7031 107.7031 20.8906 108.5781 21.7344 C 109.4375 22.5781 110.6406 23 112.1875 23 C 113.3906 23 114.375 22.8438 115.1406 22.5 C 115.9063 22.1563 116.6719 21.5156 117.4375 20.5781 L 117.5469 20.5781 L 118.2344 23 L 120.7031 23 L 120.7031 23 ZM 111.4688 19.4531 C 111.0625 19.0938 110.8594 18.5781 110.8594 17.8906 C 110.8594 16.9844 111.2031 16.2969 111.9063 15.8438 C 112.6094 15.3906 113.7344 15.1406 115.2656 15.0781 L 117.25 15 L 117.25 16.2969 C 117.25 17.4844 116.8906 18.3906 116.1719 19.0313 C 115.4531 19.6875 114.5 20 113.3125 20 C 112.4844 20 111.875 19.8281 111.4688 19.4531 L 111.4688 19.4531 Z" fill="#ff9900"/>
		<path d="M 138.6719 20.875 C 139.8438 19.4688 140.4375 17.5 140.4375 14.9688 C 140.4375 12.4531 139.8594 10.5 138.7031 9.0938 C 137.5469 7.7031 135.9531 7 133.8906 7 C 131.6875 7 130.0313 7.7813 128.9375 9.3438 L 128.7656 9.3438 C 128.5156 8.1094 128.3594 7.3281 128.2813 7 L 125.5 7 L 125.5 30 L 128.9375 30 L 128.9375 23.375 C 128.9375 23.0781 128.8594 22.2656 128.7344 20.8906 L 128.9375 20.8906 C 130.0938 22.2969 131.7344 23 133.8281 23 C 135.8906 23 137.5 22.2969 138.6719 20.875 L 138.6719 20.875 ZM 135.9063 11.25 C 136.5625 12.0938 136.9063 13.3281 136.9063 14.9531 C 136.9063 16.5781 136.5625 17.8125 135.9063 18.6875 C 135.2344 19.5625 134.2813 20 133.0625 20 C 131.5938 20 130.5469 19.6094 129.9063 18.8125 C 129.25 18.0313 128.9375 16.75 128.9375 14.9688 L 128.9375 14.5156 C 128.9375 12.9531 129.25 11.7969 129.9063 11.0781 C 130.5625 10.3594 131.5938 10 133 10 C 134.2813 10 135.25 10.4219 135.9063 11.25 L 135.9063 11.25 Z" fill="#ff9900"/>
		<path d="M 153.6094 13 L 160.1094 13 L 160.1094 21.1094 C 158.7031 21.7031 157 22 155 22 C 151.8906 22 149.5313 21.2031 147.9375 19.6094 C 146.3438 18.0156 145.5469 15.6406 145.5469 12.4844 C 145.5469 9.5781 146.375 7.2813 148.0625 5.5625 C 149.75 3.8594 152.0156 3 154.8906 3 C 156.9063 3 158.8594 3.4375 160.75 4.2969 L 161.3594 2.9531 C 159.4688 2.3281 157.3438 2 154.9844 2 C 152.7969 2 150.8594 2.4375 149.1719 3.3125 C 147.4844 4.1875 146.1875 5.4375 145.2813 7.0313 C 144.375 8.6406 143.9219 10.4844 143.9219 12.5469 C 143.9219 15.8906 144.8281 18.4688 146.6563 20.2813 C 148.4844 22.0938 151.1094 23 154.5469 23 C 157.1563 23 159.5156 22.5625 161.625 21.6875 L 161.625 12 L 153.6094 12 L 153.6094 13 L 153.6094 13 Z" fill="#ff9900"/>
		<path d="M 170.375 7.7031 C 169.6094 8.1719 168.8906 8.9844 168.2188 10.1406 L 168.1094 10.1406 L 167.9688 7 L 166.7344 7 L 166.7344 23 L 168.1719 23 L 168.1719 14.1406 C 168.1719 12.375 168.6094 10.9063 169.5156 9.75 C 170.4219 8.5938 171.5781 8 172.9844 8 C 173.7188 8 174.4375 8.0938 175.125 8.25 L 175.4063 7.1563 C 174.5938 7.0625 173.8594 7 173.1719 7 C 172.0781 7 171.1406 7.2344 170.375 7.7031 L 170.375 7.7031 Z" fill="#ff9900"/>
		<path d="M 180.1875 7 L 178.75 7 L 178.75 23 L 180.1875 23 L 180.1875 7 L 180.1875 7 ZM 179.4688 5 C 179.75 5 179.9844 4.875 180.1563 4.5938 C 180.3281 4.3281 180.4219 3.9688 180.4219 3.5 C 180.4219 3.0313 180.3281 2.6563 180.1563 2.3906 C 179.9844 2.1406 179.75 2 179.4688 2 C 178.8438 2 178.5469 2.5 178.5469 3.5 C 178.5469 4.5 178.8438 5 179.4688 5 L 179.4688 5 Z" fill="#ff9900"/>
		<path d="M 186.4844 9.125 C 185.3281 10.5313 184.75 12.5781 184.75 15.2344 C 184.75 17.7656 185.3281 19.7031 186.5 21.0156 C 187.6719 22.3438 189.375 23 191.5938 23 C 193.875 23 195.6406 22.125 196.8594 20.3594 L 196.9844 20.3594 L 197.3438 23 L 198.2969 23 L 198.2969 0 L 196.8594 0 L 196.8594 5.9375 C 196.8594 7.1719 196.8906 8.4219 196.9531 9.6875 L 196.8594 9.6875 C 196.1875 8.7188 195.4219 8.0156 194.5781 7.6094 C 193.7344 7.2031 192.7188 7 191.5625 7 C 189.3438 7 187.6406 7.7188 186.4844 9.125 L 186.4844 9.125 ZM 195.6094 9.625 C 196.4375 10.7188 196.8594 12.5 196.8594 14.9688 L 196.8594 15.2188 C 196.8594 17.6406 196.4219 19.375 195.5781 20.4219 C 194.7344 21.4844 193.3906 22 191.5781 22 C 188.0313 22 186.2656 19.7344 186.2656 15.1875 C 186.2656 12.8594 186.7031 11.0781 187.5938 9.8438 C 188.4688 8.625 189.7969 8 191.5625 8 C 193.4219 8 194.7656 8.5469 195.6094 9.625 L 195.6094 9.625 Z" fill="#ff9900"/>
	</g>
</svg>