<svg viewBox="0 0 375 227" style="background-color:#ffffff00" xmlns="http://www.w3.org/2000/svg" width="375" height="227"><path d="M296.88 58.1l36.325-10.742 32.25 112.183-185.81 54.95-27.727-96.45c27.167 7.5 54.133 14.89 81.19 22.596 2.386.66 18.76 5.89 20.786 5.29.467-.137 1.467-.774 2.11-1.477 20.975-23.446 42.015-47.25 62.944-70.853 1.663-1.858 3.593-3.965 5.366-6.025 1.13-1.36 2.37-2.92 3.702-4.168 1.93-2.107 3.17-3.67 2.582-5.715-.452-1.574-2.44-3.205-4.778-2.514-.31.092-1.356.572-1.733 1.025-24.3 27.16-72.078 81.407-72.545 81.545-.31.092-58.796-16.414-87.882-24.713-3.302-.902-6.758-1.758-9.748-2.75-1.83-.485-6.582-2.323-8.762-1.678-1.558.46-2.734 1.662-2.723 4.05l31.164 108.405c.317 1.1 2.995 2.186 3.82 2.113l194.376-57.48c1.246-.37 2.28-3.236 2.21-4.07L339.26 40.79c-.363-1.26-3.197-2.3-3.975-2.07l-38.76 11.428c.248 2.48.662 5.34.356 7.952zM229.74 4.89C226.195 3.72 214.3-.618 211.966.073c-.312.092-1.246.37-1.467.775-13.313 17.764-26.426 35.64-39.382 53.47-3.677 4.843-7.2 9.64-10.565 14.392-3.676 4.843-7.153 9.797-10.564 14.39-2.326 3.08-4.918 6.406-7.043 9.595-2.015 2.986-4.768 5.166-3.954 7.998.45 1.573 1.637 2.76 4.044 2.9l107.676-31.84c8.115-4.59 8.868-8.648 9.435-10.883L152.7 92.542l61.818-84.175 77.477 24.376c5.376 1.654 20.148 7.187 22.484 6.496 1.556-.46 3.375-2.365 2.65-4.882-.27-.944-1.1-2.065-2.616-2.64l-57.646-18.29c-4.06-1.19-8.365-2.65-12.27-3.884-4.974-1.43-10.038-3.177-14.857-4.655z" fill="#999"/><path d="M250.544 108.658l.75-4.887c.5-3.253 1.613-5.784 3.336-7.578 1.723-1.795 5.57-4.208 11.514-7.247 8.65-4.25 14.718-8.343 18.194-12.292 3.476-3.938 5.69-8.92 6.62-14.93 1.395-9.02-.892-16.74-6.858-23.165-5.96-6.42-14.673-10.483-26.14-12.18-13.9-2.056-27.552-.498-40.938 4.633l6.288 19.503c11.445-3.754 21.35-5.016 29.7-3.765 4.782.717 8.377 2.202 10.772 4.44 2.394 2.253 3.328 5.133 2.788 8.638-.483 3.14-1.854 5.828-4.114 8.08-2.26 2.265-6.63 4.967-13.086 8.12-6.732 3.39-11.514 6.819-14.367 10.295-2.866 3.473-4.68 7.804-5.47 12.963l-.913 5.965 21.924 3.41zm0 29.294l.08-.48c.68-4.433-.064-8.05-2.206-10.844-2.145-2.78-5.513-4.535-10.078-5.25-4.744-.745-8.538-.143-11.368 1.793-2.116 1.458-3.634 3.638-4.556 6.54l28.127 8.242zM142.5 202.256c2.27-.33 3.41.698 3.817 2.114.317 1.102-.185 3.47-1.743 3.93L81.34 227c-2.206-.03-3.08-1.31-3.397-2.41-.407-1.416-.146-2.86 1.944-3.818l62.612-18.516zM137.07 183.376c2.272-.33 3.413.698 3.82 2.114.316 1.1-.186 3.47-1.743 3.93l-75.695 22.384c-2.206-.03-3.08-1.308-3.397-2.41-.407-1.416-.146-2.86 1.944-3.818l75.07-22.2zM131.643 164.495c2.27-.33 3.412.698 3.82 2.114.316 1.1-.187 3.47-1.744 3.93l-88.156 26.068c-2.206-.03-3.08-1.308-3.397-2.41-.407-1.416-.145-2.86 1.945-3.818l87.53-25.885zM126.216 145.614c2.27-.33 3.41.7 3.818 2.115.317 1.1-.185 3.468-1.743 3.928L21.447 183.255c-2.205-.03-3.08-1.31-3.396-2.41-.407-1.416-.146-2.86 1.944-3.82l106.222-31.41zM120.788 126.734c2.27-.33 3.412.698 3.82 2.114.315 1.102-.187 3.47-1.745 3.93L3.558 168.058c-2.205-.03-3.08-1.308-3.396-2.41-.407-1.415-.146-2.858 1.944-3.818l118.682-35.096z" fill="#f90"/></svg>